<?xml version="1.0" encoding="UTF-8" standalone="no"?>
<!-- Created with Inkscape (http://www.inkscape.org/) -->

<svg
   xmlns:dc="http://purl.org/dc/elements/1.1/"
   xmlns:cc="http://creativecommons.org/ns#"
   xmlns:rdf="http://www.w3.org/1999/02/22-rdf-syntax-ns#"
   xmlns:svg="http://www.w3.org/2000/svg"
   xmlns="http://www.w3.org/2000/svg"
   xmlns:sodipodi="http://sodipodi.sourceforge.net/DTD/sodipodi-0.dtd"
   xmlns:inkscape="http://www.inkscape.org/namespaces/inkscape"
   width="611.51501"
   height="378.05099"
   viewBox="0 0 611.51501 378.051"
   id="svg4552"
   version="1.1"
   inkscape:version="0.91 r13725"
   sodipodi:docname="golden-curve-dark-blue.svg">
  <defs
     id="defs4554" />
  <sodipodi:namedview
     id="base"
     pagecolor="#ffffff"
     bordercolor="#666666"
     borderopacity="1.0"
     inkscape:pageopacity="0.0"
     inkscape:pageshadow="2"
     inkscape:zoom="0.98994949"
     inkscape:cx="196.70426"
     inkscape:cy="83.19047"
     inkscape:document-units="px"
     inkscape:current-layer="layer1"
     showgrid="false"
     fit-margin-top="0"
     fit-margin-left="0"
     fit-margin-right="0"
     fit-margin-bottom="0"
     inkscape:window-width="1368"
     inkscape:window-height="889"
     inkscape:window-x="-8"
     inkscape:window-y="-8"
     inkscape:window-maximized="1"
     units="px"
     showguides="false"
     inkscape:object-nodes="true" />
  <metadata
     id="metadata4557">
    <rdf:RDF>
      <cc:Work
         rdf:about="">
        <dc:format>image/svg+xml</dc:format>
        <dc:type
           rdf:resource="http://purl.org/dc/dcmitype/StillImage" />
        <dc:title></dc:title>
      </cc:Work>
    </rdf:RDF>
  </metadata>
  <g
     inkscape:label="Layer 1"
     inkscape:groupmode="layer"
     id="layer1"
     transform="translate(771.21509,-502.87559)">
    <path
       id="path3946"
       style="fill:none;stroke:#2fc4d3;stroke-width:0.61799997;stroke-linecap:round;stroke-linejoin:round;stroke-miterlimit:4;stroke-dasharray:none;stroke-opacity:1"
       d="m -325.27436,791.50338 c 11.63734,5e-5 21.06419,-9.45342 21.0524,-21.08656 m 0,0 c 0,-18.78774 -15.25762,-34.01176 -34.04652,-33.99643 m 0,0 c -30.40618,0 -55.06013,24.64908 -55.06008,55.05594 m 0,0 c -5e-5,49.21689 39.89673,89.11776 89.11366,89.11779 m 0,0 c 79.63849,-10e-6 144.20562,-64.55823 144.2056,-144.20085 m 0,0 c -1e-5,-128.86727 -104.47036,-233.34232 -233.34223,-233.33762 m 0,0 c -208.51807,10e-6 -377.55785,169.0393 -377.55434,377.55734"
       inkscape:connector-curvature="0" />
  </g>
</svg>
