<svg id="svg4552" xmlns:rdf="http://www.w3.org/1999/02/22-rdf-syntax-ns#" xmlns="http://www.w3.org/2000/svg" height="379.57" width="612.9" version="1.1" xmlns:cc="http://creativecommons.org/ns#" xmlns:dc="http://purl.org/dc/elements/1.1/" viewBox="0 0 612.89678 379.57175">
	<g id="layer1" transform="translate(773.56 -497.44)">
		<path id="path3946" style="stroke-linejoin:round;stroke:#666;stroke-linecap:round;stroke-miterlimit:9.4545;stroke-width:2;fill:none" d="m-326.93 786.88c11.637 0 21.064-9.4534 21.052-21.087 0-18.788-15.258-34.012-34.047-33.996-30.406 0-55.06 24.649-55.06 55.056-0.00005 49.217 39.897 89.118 89.114 89.118 79.638 0 144.21-64.558 144.21-144.2-0.00001-128.87-104.47-233.34-233.34-233.34-208.52 0-377.56 169.04-377.55 377.56"/>
		<path id="rect3751" style="stroke-linejoin:round;stroke:#000;stroke-miterlimit:9.4545;stroke-width:2;fill:none" d="m-339.92 731.78h34.044v55.085h-34.044zm-55.085 0h55.085v55.085h-55.085zm0 55.085v-55.085h89.129v55.085zm0 89.129v-89.129h89.129v89.129zm89.129-0.0001h-89.129v-144.21h89.129zm144.21 0h-144.21v-144.21h144.21zm0-144.21v144.21h-233.34v-144.21zm0-233.34v233.34h-233.34v-233.34zm-233.34 0h233.34v377.56h-233.34zm-377.55 0h377.55v377.56h-377.55zh610.9v377.56h-610.9z"/>
	</g>
</svg>
