<?xml version="1.0" encoding="UTF-8" standalone="no"?>
<!-- Created with Inkscape (http://www.inkscape.org/) -->

<svg
   xmlns:dc="http://purl.org/dc/elements/1.1/"
   xmlns:cc="http://creativecommons.org/ns#"
   xmlns:rdf="http://www.w3.org/1999/02/22-rdf-syntax-ns#"
   xmlns:svg="http://www.w3.org/2000/svg"
   xmlns="http://www.w3.org/2000/svg"
   xmlns:sodipodi="http://sodipodi.sourceforge.net/DTD/sodipodi-0.dtd"
   xmlns:inkscape="http://www.inkscape.org/namespaces/inkscape"
   width="5.6444445mm"
   height="5.6444445mm"
   viewBox="0 0 20 20"
   id="svg5106"
   version="1.1"
   inkscape:version="0.91 r13725"
   sodipodi:docname="powerups.svg"
   inkscape:export-filename="C:\Users\erpat\DevMtn\personal-project\portfolio\game\dist\img\powerup2.png"
   inkscape:export-xdpi="90"
   inkscape:export-ydpi="90">
  <defs
     id="defs5108" />
  <sodipodi:namedview
     id="base"
     pagecolor="#ffffff"
     bordercolor="#666666"
     borderopacity="1.0"
     inkscape:pageopacity="0"
     inkscape:pageshadow="2"
     inkscape:zoom="2"
     inkscape:cx="-86.728236"
     inkscape:cy="31.038261"
     inkscape:document-units="px"
     inkscape:current-layer="layer1"
     showgrid="false"
     fit-margin-top="0"
     fit-margin-left="0"
     fit-margin-right="0"
     fit-margin-bottom="0"
     inkscape:window-width="1368"
     inkscape:window-height="889"
     inkscape:window-x="-8"
     inkscape:window-y="-8"
     inkscape:window-maximized="1"
     showborder="false"
     inkscape:object-nodes="false"
     inkscape:snap-midpoints="false"
     inkscape:snap-intersection-paths="true" />
  <metadata
     id="metadata5111">
    <rdf:RDF>
      <cc:Work
         rdf:about="">
        <dc:format>image/svg+xml</dc:format>
        <dc:type
           rdf:resource="http://purl.org/dc/dcmitype/StillImage" />
        <dc:title></dc:title>
      </cc:Work>
    </rdf:RDF>
  </metadata>
  <g
     inkscape:label="Layer 1"
     inkscape:groupmode="layer"
     id="layer1"
     transform="translate(308.72416,-590.27064)">
    <path
       inkscape:connector-curvature="0"
       style="opacity:1;fill:#5353ff;fill-opacity:1;stroke:none;stroke-width:1;stroke-linecap:butt;stroke-linejoin:round;stroke-miterlimit:4;stroke-dasharray:none;stroke-opacity:1"
       d="m -298.72221,590.27064 a 10.00077,9.9998347 0 0 0 -10.00195,10 10.00077,9.9998347 0 0 0 10.00195,10 10.00077,9.9998347 0 0 0 9.99805,-10 10.00077,9.9998347 0 0 0 -9.99805,-10 z m 0,0.83984 a 9.1611114,9.1602548 0 0 1 9.15821,9.16016 9.1611114,9.1602548 0 0 1 -9.15821,9.16016 9.1611114,9.1602548 0 0 1 -9.16211,-9.16016 9.1611114,9.1602548 0 0 1 9.16211,-9.16016 z"
       id="path5718" />
    <path
       inkscape:connector-curvature="0"
       style="opacity:1;fill:#5353ff;fill-opacity:1;stroke:none;stroke-width:1;stroke-linecap:butt;stroke-linejoin:round;stroke-miterlimit:4;stroke-dasharray:none;stroke-opacity:1"
       d="m -295.08549,593.10462 a 2.2620242,2.2620242 0 0 0 -0.60742,0.0781 2.2620242,2.2620242 0 0 0 -1.60156,2.77149 2.2620242,2.2620242 0 0 0 2.77344,1.59961 2.2620242,2.2620242 0 0 0 1.59765,-2.77149 2.2620242,2.2620242 0 0 0 -2.16211,-1.67773 z m -4.26172,1.6504 a 1.7537912,1.7537912 0 0 0 -0.4707,0.0606 1.7537912,1.7537912 0 0 0 -1.24023,2.14648 1.7537912,1.7537912 0 0 0 2.14843,1.24023 1.7537912,1.7537912 0 0 0 1.24024,-2.14843 1.7537912,1.7537912 0 0 0 -1.67774,-1.29883 z m -3.27734,1.38476 a 1.2455583,1.2455583 0 0 0 -0.33203,0.041 1.2455583,1.2455583 0 0 0 -0.88086,1.52734 1.2455583,1.2455583 0 0 0 1.52539,0.87891 1.2455583,1.2455583 0 0 0 0.87891,-1.52344 1.2455583,1.2455583 0 0 0 -1.19141,-0.92383 z m -2.39844,1.03906 a 0.84781069,0.84781069 0 0 0 -0.22851,0.0273 0.84781069,0.84781069 0 0 0 -0.59961,1.04102 0.84781069,0.84781069 0 0 0 1.03906,0.59961 0.84781069,0.84781069 0 0 0 0.59766,-1.03906 0.84781069,0.84781069 0 0 0 -0.8086,-0.62891 z m 10.06641,0.8125 a 2.2620242,2.2620242 0 0 0 -2.26367,2.26368 2.2620242,2.2620242 0 0 0 2.26367,2.26171 2.2620242,2.2620242 0 0 0 2.26172,-2.26171 2.2620242,2.2620242 0 0 0 -2.26172,-2.26368 z m -4.40625,0.50977 a 1.7537912,1.7537912 0 0 0 -1.75391,1.75391 1.7537912,1.7537912 0 0 0 1.75391,1.7539 1.7537912,1.7537912 0 0 0 1.7539,-1.7539 1.7537912,1.7537912 0 0 0 -1.7539,-1.75391 z m -3.38672,0.50781 a 1.2455583,1.2455583 0 0 0 -1.24609,1.2461 1.2455583,1.2455583 0 0 0 1.24609,1.24413 1.2455583,1.2455583 0 0 0 1.24414,-1.24413 1.2455583,1.2455583 0 0 0 -1.24414,-1.2461 z m -2.48242,0.39649 a 0.84781069,0.84781069 0 0 0 -0.84766,0.84961 0.84781069,0.84781069 0 0 0 0.84766,0.84765 0.84781069,0.84781069 0 0 0 0.84765,-0.84765 0.84781069,0.84781069 0 0 0 -0.84765,-0.84961 z m 0.1914,2.22851 a 0.84781069,0.84781069 0 0 0 -0.81054,0.62891 0.84781069,0.84781069 0 0 0 0.59961,1.03906 0.84781069,0.84781069 0 0 0 1.03711,-0.60156 0.84781069,0.84781069 0 0 0 -0.59766,-1.03711 0.84781069,0.84781069 0 0 0 -0.22852,-0.0293 z m 2.39454,0.24609 a 1.2455583,1.2455583 0 0 0 -1.19141,0.92188 1.2455583,1.2455583 0 0 0 0.88086,1.52539 1.2455583,1.2455583 0 0 0 1.52344,-0.88086 1.2455583,1.2455583 0 0 0 -0.87891,-1.52344 1.2455583,1.2455583 0 0 0 -0.33398,-0.043 z m 3.26757,0.36719 a 1.7537912,1.7537912 0 0 0 -1.67968,1.29883 1.7537912,1.7537912 0 0 0 1.24023,2.14844 1.7537912,1.7537912 0 0 0 2.14844,-1.24024 1.7537912,1.7537912 0 0 0 -1.24024,-2.14648 1.7537912,1.7537912 0 0 0 -0.46875,-0.0606 z m 4.25,0.63281 a 2.2620242,2.2620242 0 0 0 -2.16601,1.67579 2.2620242,2.2620242 0 0 0 1.60156,2.77148 2.2620242,2.2620242 0 0 0 2.76953,-1.59961 2.2620242,2.2620242 0 0 0 -1.59765,-2.77148 2.2620242,2.2620242 0 0 0 -0.60743,-0.0762 z"
       id="path5721" />
    <path
       inkscape:connector-curvature="0"
       style="opacity:1;fill:#00c800;fill-opacity:1;stroke:none;stroke-width:1;stroke-linecap:butt;stroke-linejoin:round;stroke-miterlimit:4;stroke-dasharray:none;stroke-opacity:1"
       d="m -290.53147,526.71717 a 10.00077,9.9998347 0 0 0 -10.00196,10 10.00077,9.9998347 0 0 0 10.00196,10 10.00077,9.9998347 0 0 0 9.99804,-10 10.00077,9.9998347 0 0 0 -9.99804,-10 z m 0,0.83985 a 9.1611114,9.1602548 0 0 1 9.1582,9.16015 9.1611114,9.1602548 0 0 1 -9.1582,9.16016 9.1611114,9.1602548 0 0 1 -9.16211,-9.16016 9.1611114,9.1602548 0 0 1 9.16211,-9.16015 z m -5.2793,5.17383 0,3.47656 1.08008,0 0,-3.47656 -1.08008,0 z m 1.80078,0 0,3.47656 5.30664,0 c 2.54325,-0.0287 3.43454,-0.82033 3.44922,-1.67774 3.5e-4,-0.0203 -0.01,-0.0404 -0.0117,-0.0606 0.003,-0.02 0.0121,-0.0401 0.0117,-0.0605 -0.0147,-0.8574 -0.90597,-1.64906 -3.44922,-1.67773 l -5.30664,0 z m -1.80078,4.49414 0,3.47851 1.08008,0 0,-3.47851 -1.08008,0 z m 1.80078,0 0,3.47851 5.30664,0 c 2.54325,-0.0287 3.43454,-0.82032 3.44922,-1.67773 3.5e-4,-0.0203 -0.01,-0.0404 -0.0117,-0.0605 0.003,-0.02 0.0121,-0.0402 0.0117,-0.0606 -0.0147,-0.85741 -0.90597,-1.65102 -3.44922,-1.67969 l -5.30664,0 z"
       id="path5697" />
    <path
       style="opacity:1;fill:#d40000;fill-opacity:1;stroke:none;stroke-width:1;stroke-linecap:butt;stroke-linejoin:round;stroke-miterlimit:4;stroke-dasharray:none;stroke-opacity:1"
       d="m -238.17104,560.33347 a 10.00077,9.9998347 0 0 0 -10.00195,10 10.00077,9.9998347 0 0 0 10.00195,10 10.00077,9.9998347 0 0 0 9.99805,-10 10.00077,9.9998347 0 0 0 -9.99805,-10 z m 0,0.83984 a 9.1611114,9.1602548 0 0 1 9.1582,9.16016 9.1611114,9.1602548 0 0 1 -9.1582,9.16016 9.1611114,9.1602548 0 0 1 -9.16211,-9.16016 9.1611114,9.1602548 0 0 1 9.16211,-9.16016 z m 2.9375,4.36524 -0.56055,2.42578 -1.2871,-2.13086 0.41015,2.45508 -2.00586,-1.47461 1.31836,2.11133 -2.41601,-0.59571 1.99804,1.42579 -7.94922,0 0,1.14648 7.625,0 -1.81445,1.09766 2.45703,-0.41016 -1.47656,2.00391 2.11133,-1.31836 -0.59375,2.41797 1.44531,-2.02735 0.375,2.46094 0.56055,-2.42578 1.28711,2.13086 -0.41016,-2.45508 2.00586,1.47461 -1.31836,-2.10938 2.41602,0.59571 -2.02539,-1.44532 2.46093,-0.375 -2.42578,-0.56054 2.13086,-1.28907 -2.45703,0.41016 1.47656,-2.00391 -2.11133,1.31836 0.59571,-2.41796 -1.44727,2.02734 -0.375,-2.46289 z"
       id="path5761"
       inkscape:connector-curvature="0" />
  </g>
</svg>
