<?xml version="1.0" encoding="UTF-8" standalone="no"?>
<svg
   xmlns:dc="http://purl.org/dc/elements/1.1/"
   xmlns:cc="http://creativecommons.org/ns#"
   xmlns:rdf="http://www.w3.org/1999/02/22-rdf-syntax-ns#"
   xmlns:svg="http://www.w3.org/2000/svg"
   xmlns="http://www.w3.org/2000/svg"
   xmlns:sodipodi="http://sodipodi.sourceforge.net/DTD/sodipodi-0.dtd"
   xmlns:inkscape="http://www.inkscape.org/namespaces/inkscape"
   enable-background="new 0 0 32 32"
   id="Layer_1"
   version="1.0"
   viewBox="0 0 32 32"
   xml:space="preserve"
   inkscape:version="0.91 r13725"
   sodipodi:docname="linkedin_logo.svg"
   width="32"
   height="32"><metadata
     id="metadata4292"><rdf:RDF><cc:Work
         rdf:about=""><dc:format>image/svg+xml</dc:format><dc:type
           rdf:resource="http://purl.org/dc/dcmitype/StillImage" /><dc:title></dc:title></cc:Work></rdf:RDF></metadata><defs
     id="defs4290" /><sodipodi:namedview
     pagecolor="#000000"
     bordercolor="#666666"
     borderopacity="1"
     objecttolerance="10"
     gridtolerance="10"
     guidetolerance="10"
     inkscape:pageopacity="0"
     inkscape:pageshadow="2"
     inkscape:window-width="1920"
     inkscape:window-height="1057"
     id="namedview4288"
     showgrid="false"
     inkscape:object-nodes="true"
     fit-margin-top="0"
     fit-margin-left="0"
     fit-margin-right="0"
     fit-margin-bottom="0"
     inkscape:zoom="14.75"
     inkscape:cx="24.875987"
     inkscape:cy="21.205818"
     inkscape:window-x="2728"
     inkscape:window-y="-8"
     inkscape:window-maximized="1"
     inkscape:current-layer="Layer_1" /><rect
     style="opacity:1;fill:none;fill-opacity:1;fill-rule:nonzero;stroke:#ffffff;stroke-width:1.90107822;stroke-linecap:butt;stroke-linejoin:round;stroke-miterlimit:9.45454502;stroke-dasharray:none;stroke-opacity:1"
     id="rect4839"
     width="30.098923"
     height="30.098923"
     x="0.95053911"
     y="0.95053917"
     ry="6.1016951" /><path
     style="fill:none"
     inkscape:connector-curvature="0"
     id="path4266"
     d="m 31.208626,29.782817 c 0,1.049395 -0.851683,1.901079 -1.901078,1.901079 l -26.6150956,0 c -1.0493952,0 -1.90107829,-0.851684 -1.90107829,-1.901079 l 0,-26.6150951 c 0,-1.0493951 0.85168309,-1.9010782 1.90107829,-1.9010782 l 26.6150956,0 c 1.049395,0 1.901078,0.8516831 1.901078,1.9010782 l 0,26.6150951 z" /><g
     id="g4268"
     style="fill:#ffffff"
     transform="matrix(0.95053912,0,0,0.95053912,0.79137411,0.68665373)"><rect
       style="fill:#ffffff"
       id="rect4270"
       y="11"
       x="7"
       width="4"
       height="14" /><path
       style="fill:#ffffff"
       inkscape:connector-curvature="0"
       id="path4272"
       d="M 20.499,11 C 17.708,11 17.228,12.018 17,13 l 0,-2 -4,0 0,14 4,0 0,-8 c 0,-1.297 0.703,-2 2,-2 1.266,0 2,0.688 2,2 l 0,8 4,0 0,-7 c 0,-4 -0.521,-7 -4.501,-7 z" /><circle
       style="fill:#ffffff"
       id="circle4274"
       r="2"
       cy="8"
       cx="9" /></g><g
     id="g4276"
     transform="translate(0.83255291,-0.33255293)" /><g
     id="g4278"
     transform="translate(0.83255291,-0.33255293)" /><g
     id="g4280"
     transform="translate(0.83255291,-0.33255293)" /><g
     id="g4282"
     transform="translate(0.83255291,-0.33255293)" /><g
     id="g4284"
     transform="translate(0.83255291,-0.33255293)" /><g
     id="g4286"
     transform="translate(0.83255291,-0.33255293)" /></svg>