<?xml version="1.0" encoding="UTF-8" standalone="no"?>
<!-- Generator: Adobe Illustrator 18.1.1, SVG Export Plug-In . SVG Version: 6.00 Build 0)  -->

<svg
   xmlns:dc="http://purl.org/dc/elements/1.1/"
   xmlns:cc="http://creativecommons.org/ns#"
   xmlns:rdf="http://www.w3.org/1999/02/22-rdf-syntax-ns#"
   xmlns:svg="http://www.w3.org/2000/svg"
   xmlns="http://www.w3.org/2000/svg"
   xmlns:sodipodi="http://sodipodi.sourceforge.net/DTD/sodipodi-0.dtd"
   xmlns:inkscape="http://www.inkscape.org/namespaces/inkscape"
   version="1.1"
   id="Layer_1"
   x="0px"
   y="0px"
   viewBox="-83.558 357.875 611.515 378.051"
   enable-background="new -83.558 357.875 611.515 378.051"
   xml:space="preserve"
   inkscape:version="0.91 r13725"
   sodipodi:docname="spiral-line-orange.svg"><metadata
     id="metadata13"><rdf:RDF><cc:Work
         rdf:about=""><dc:format>image/svg+xml</dc:format><dc:type
           rdf:resource="http://purl.org/dc/dcmitype/StillImage" /><dc:title></dc:title></cc:Work></rdf:RDF></metadata><defs
     id="defs11" /><sodipodi:namedview
     pagecolor="#ffffff"
     bordercolor="#666666"
     borderopacity="1"
     objecttolerance="10"
     gridtolerance="10"
     guidetolerance="10"
     inkscape:pageopacity="0"
     inkscape:pageshadow="2"
     inkscape:window-width="1368"
     inkscape:window-height="889"
     id="namedview9"
     showgrid="false"
     inkscape:zoom="0.58706653"
     inkscape:cx="70.457637"
     inkscape:cy="-82.49115"
     inkscape:window-x="-8"
     inkscape:window-y="-8"
     inkscape:window-maximized="1"
     inkscape:current-layer="Layer_1" /><path
     fill="none"
     stroke="#CCCCCC"
     stroke-width="0.3"
     stroke-miterlimit="10"
     d="M357.492,625.548c-4.444,0-8.04,3.596-8.04,8.04  c0,7.19,5.819,13.009,13.009,13.009c11.634,0,21.049-9.415,21.049-21.049c0-18.825-15.234-34.059-34.059-34.059  c-30.459,0-55.108,24.65-55.108,55.108c0,49.221,39.957,89.178,89.178,89.178l0,0c79.679,0,144.286-64.607,144.286-144.286  c0-128.9-104.486-233.464-233.464-233.464c-208.658,0-377.751,169.093-377.751,377.751c0,337.614,273.598,611.212,611.212,611.212"
     id="path3"
     style="stroke:#cb9a00;stroke-opacity:1" /><path
     fill="none"
     stroke="#CCCCCC"
     stroke-width="0.3"
     stroke-miterlimit="10"
     d="M357.492,625.548"
     id="path5" /><path
     fill="none"
     stroke="#CCCCCC"
     stroke-width="0.3"
     stroke-miterlimit="10"
     d="M357.492,625.548"
     id="path7" /></svg>