<svg id="svg2" xmlns:rdf="http://www.w3.org/1999/02/22-rdf-syntax-ns#" xmlns="http://www.w3.org/2000/svg" height="210.16mm" width="209.72mm" version="1.1" xmlns:cc="http://creativecommons.org/ns#" xmlns:xlink="http://www.w3.org/1999/xlink" viewBox="0 0 743.11518 744.67089" xmlns:dc="http://purl.org/dc/elements/1.1/">
	<defs id="defs4">
		<linearGradient id="linearGradient3768" y2="296.36" gradientUnits="userSpaceOnUse" x2="-67" gradientTransform="translate(-113.11 -266.77)" y1="628.36" x1="-342">
			<stop id="stop3764" style="stop-color:#808080" offset="0"/>
			<stop id="stop3772" style="stop-color:#ececec" offset=".57639"/>
			<stop id="stop3770" style="stop-color:#ccc" offset=".81944"/>
			<stop id="stop3766" style="stop-color:#808080;stop-opacity:0" offset="1"/>
		</linearGradient>
		<radialGradient id="radialGradient3794" gradientUnits="userSpaceOnUse" cy="257.36" cx="-659" gradientTransform="translate(347.89 -56.772)" r="183.9">
			<stop id="stop3790" style="stop-color:#fff;stop-opacity:0" offset="0"/>
			<stop id="stop3792" style="stop-color:#0ff;stop-opacity:.03" offset="1"/>
		</radialGradient>
		<linearGradient id="linearGradient3825" y2="227.19" gradientUnits="userSpaceOnUse" x2="-90.063" gradientTransform="matrix(.76094 0 0 .53577 213.07 62.2)" y1="299.31" x1="-90.063">
			<stop id="stop3821" style="stop-color:#b3b3b3" offset="0"/>
			<stop id="stop3823" style="stop-color:#f2f2f2" offset="1"/>
		</linearGradient>
		<linearGradient id="linearGradient3866" y2="392.13" gradientUnits="userSpaceOnUse" x2="-504.89" gradientTransform="translate(347.89 -56.772)" y1="127.13" x1="-807.89">
			<stop id="stop3870" offset="0"/>
			<stop id="stop3872" style="stop-color:#666" offset=".57639"/>
			<stop id="stop3874" style="stop-color:#1a1a1a" offset=".81944"/>
			<stop id="stop3876" style="stop-color:#808080;stop-opacity:0" offset="1"/>
		</linearGradient>
	</defs>
	<g id="layer1" transform="translate(463.86 197.08)">
		<g id="g3910">
			<g id="g3905" transform="matrix(.70711 .70711 -.70711 .70711 113.97 97.07)">
				<g id="g3922">
					<g id="g3901">
						<path id="rect3796" style="fill:url(#linearGradient3825)" d="m402.89 178.66c-33.14-0.0416-361.58 4.6631-487.24 7.9064-4.3865 0.64194-8.2153 1.3253-11.572 2.0404a164.36 135.61 0 0 1 0.72676 11.981 164.36 135.61 0 0 1 -0.6896 11.48c4.2685 1.2844 8.4219 2.1788 11.534 2.5198 129.72 3.348 471.74 8.442 489.52 7.8868 17.774-0.55514 18.636-10.723 18.181-21.63-0.87604-10.505-4.1744-21.799-18.182-22.165-0.43775-0.0114-1.2004-0.0183-2.2694-0.0196z"/>
						<path id="path3829" style="fill:#333" d="m-96.133 180.14a216 216 0 0 1 1.0215 20.447 216 216 0 0 1 -1.2988 21.52 18.263 21.345 0 0 0 15.242 -20.998 18.263 21.345 0 0 0 -14.965 -20.969zm-21.555 20.576a18.263 21.345 0 0 0 -0.006 0.39258 6.9948 23.639 0 0 1 0.006 -0.39258z"/>
					</g>
					<circle id="path3774" cx="-311.11" cy="200.59" r="183.9" style="fill:url(#radialGradient3794)"/>
					<path id="path3711" d="m-311.11-0.22008a200.81 200.81 0 0 0 -200.81 200.81 200.81 200.81 0 0 0 200.81 200.81 200.81 200.81 0 0 0 200.81 -200.81 200.81 200.81 0 0 0 -200.81 -200.81zm0 16.91a183.9 183.9 0 0 1 183.9 183.9 183.9 183.9 0 0 1 -183.9 183.9 183.9 183.9 0 0 1 -183.9 -183.9 183.9 183.9 0 0 1 183.9 -183.9z" style="opacity:0.374;fill:url(#linearGradient3866)"/>
					<path id="path3716" style="fill:url(#linearGradient3768)" d="m-311.11-15.41a216 216 0 0 0 -216 216 216 216 0 0 0 216 216 216 216 0 0 0 216 -216 216 216 0 0 0 -216 -216zm0 18.189a197.81 197.81 0 0 1 197.81 197.81 197.81 197.81 0 0 1 -197.81 197.81 197.81 197.81 0 0 1 -197.81 -197.81 197.81 197.81 0 0 1 197.81 -197.81z"/>
				</g>
			</g>
		</g>
	</g>
</svg>
